<svg width="69px" height="69px" viewBox="-2.4 -2.4 28.80 28.80" xmlns="http://www.w3.org/2000/svg" fill="#fff8e7" stroke="#fff8e7" stroke-width="0.00024000000000000003"><g id="SVGRepo_bgCarrier" stroke-width="0"></g><g id="SVGRepo_tracerCarrier" stroke-linecap="round" stroke-linejoin="round"></g><g id="SVGRepo_iconCarrier"> <g> <path fill="none" d="M0 0h24v24H0z"></path> <path d="M4 18h2v2h12V4H6v2H4V3a1 1 0 0 1 1-1h14a1 1 0 0 1 1 1v18a1 1 0 0 1-1 1H5a1 1 0 0 1-1-1v-3zm2-7h7v2H6v3l-5-4 5-4v3z"></path> </g> </g></svg>


