<svg width="69" height="65" viewBox="0 0 69 65" fill="none" xmlns="http://www.w3.org/2000/svg">
<path d="M56.6375 49.5625L44.5625 38.1875C43.9875 37.6459 43.125 37.375 42.2625 37.375C44.5625 34.6667 46 30.875 46 27.0834C46 18.1459 38.2375 10.8334 28.75 10.8334C19.2625 10.8334 11.5 18.1459 11.5 27.0834C11.5 36.0209 19.2625 43.3334 28.75 43.3334C32.775 43.3334 36.8 41.9792 39.675 39.5417C39.675 40.3542 39.675 41.1667 40.5375 41.7084L52.6125 53.0834C53.1875 53.625 54.05 53.8959 54.625 53.8959C55.2 53.8959 56.0625 53.625 56.6375 53.0834C57.7875 52.2709 57.7875 50.6459 56.6375 49.5625ZM28.75 39.2709C21.5625 39.2709 15.8125 33.8542 15.8125 27.0834C15.8125 20.3125 21.5625 14.8959 28.75 14.8959C35.9375 14.8959 41.6875 20.3125 41.6875 27.0834C41.6875 33.8542 35.9375 39.2709 28.75 39.2709Z" fill="#FF5733"/>
</svg>
