<svg width="69" height="65" viewBox="0 0 69 65" fill="none" xmlns="http://www.w3.org/2000/svg">
<path d="M34.2125 10.8334C18.1125 10.8334 25.875 30.6042 25.875 30.6042C27.6 33.3125 29.9 32.7709 29.9 34.6667C29.9 36.2917 27.8875 36.8334 25.875 37.1042C22.7125 37.1042 19.8375 36.5625 16.9625 41.4375C15.2375 44.4167 14.375 54.1667 14.375 54.1667H53.7625C53.7625 54.1667 52.9 44.4167 51.4625 41.4375C48.5875 36.2917 45.7125 37.1042 42.55 36.8334C40.5375 36.5625 38.525 36.0209 38.525 34.3959C38.525 32.7709 40.825 33.3125 42.55 30.3334C42.55 30.6042 50.3125 10.8334 34.2125 10.8334V10.8334Z" fill="#FF5733"/>
</svg>
